<?xml version="1.0" encoding="UTF-8"?>
<svg id="Livello_2" data-name="Livello 2" xmlns="http://www.w3.org/2000/svg" viewBox="0 0 793.97 725.98">
  <defs>
    <style>
      .cls-1, .cls-2 {
        fill: #fff;
      }

      .cls-3 {
        fill: #fffbfb;
      }

      .cls-4 {
        fill: #fff8f8;
      }

      .cls-5 {
        fill: #fff8f7;
      }

      .cls-6 {
        fill: #fffefe;
      }

      .cls-7 {
        fill: #ff0808;
      }

      .cls-8 {
        fill: #ff0303;
      }

      .cls-9 {
        fill: #ff0707;
      }

      .cls-10 {
        fill: #ffb600;
      }

      .cls-11 {
        fill: red;
      }

      .cls-12, .cls-13, .cls-14 {
        fill: #ff0101;
      }

      .cls-2 {
        stroke-width: 10.83px;
      }

      .cls-2, .cls-13, .cls-14 {
        stroke: #ff0303;
        stroke-miterlimit: 10;
      }

      .cls-13 {
        stroke-width: 15.1px;
      }

      .cls-14 {
        stroke-width: 14.9px;
      }
    </style>
  </defs>
  <g id="Livello_1-2" data-name="Livello 1">
    <path class="cls-6" d="M170.82,497.42h-31.62v-45.46c3.65,9.14,8.41,17.79,14.33,25.97,5.16,7.14,10.96,13.59,17.29,19.49Z"/>
    <path class="cls-6" d="M422.17,403.29c-.08,2.38,.16,4.84-1.44,7.03-3.51-.83-6.81-2.17-10.22-3.51,.12-1.3,.35-2.49,.32-3.67-.07-2.61-1.33-4.38-3.87-4.85-6.05-1.12-12-.63-17.62,2.02-2.12,1-3.69,2.62-3.66,5.24,0,.8-.13,1.46-1.03,1.75-2.85,.91-5.7,1.85-8.56,2.77-.67,.21-1.18-.09-1.39-.73-.23-.71-.45-1.44-.5-2.19-.37-5.24,1.26-9.76,4.97-13.52,1.38-1.41,2.95-2.61,4.72-3.44,8.29-3.91,16.96-5.02,25.91-2.97,7.72,1.77,12.63,8.06,12.38,16.08Z"/>
    <path class="cls-6" d="M468.57,473.2c-.69,.59-1.44,1.09-2.19,1.6-14.5,9.8-30.1,17.06-47.32,20.6-6.48,1.33-12.98,2.02-19.55,2.02-2.61,0-5.24-.11-7.87-.33-21.39-1.79-41.2-8.41-59.76-18.99-.52-.3-1.04-.61-1.53-.95-.25-.17-.42-.42-.81-.82,1.31-2.73,3.03-5.29,5.14-7.75,1.43,.78,2.76,1.48,4.07,2.21,13,7.22,26.84,12.16,41.41,15.07,20.82,4.16,40.76,1.2,59.97-7.48,7.3-3.29,14.27-7.16,20.86-11.7,.75-.51,1.48-1.01,2.63-1.8,1.92,2.47,3.58,4.61,5.22,6.75,.44,.59,.23,1.18-.26,1.59Z"/>
    <path class="cls-6" d="M559.25,291.3s-.07,.02-.09,.02c-.02-.03-.05-.06-.07-.08,.05,0,.09,0,.13,0,0,.02,.02,.05,.03,.08Z"/>
    <path class="cls-6" d="M700.58,190.69v148.28c-2.5-2.6-5.78-4.5-9.68-5.79-3.72-1.22-7.59-1.89-11.54-2.06-7.29-.31-14.46,.41-21.53,2.15-1.16,.28-2.28,.83-3.58,.33-.12-.38-.34-.79-.39-1.23-1.27-10.48-2.53-20.97-3.8-31.44-.44-3.6-.9-7.18-1.42-10.76-.23-1.59-.6-1.79-2.08-1.49-4.13,.85-8.24,1.8-12.39,2.57-9.36,1.71-18.8,2.63-28.31,3.13-12.1,.64-24.11-.2-36.1-1.79-3.51-.46-6.94-1.78-10.56-1.37-.31-.83-1.1-.76-1.79-.92-20.49-4.65-39.53-12.72-56.99-24.41-20.48-13.73-38.3-30.32-53.3-49.9-6.25-8.17-11.91-16.6-16.98-25.31h270.43Z"/>
    <path class="cls-6" d="M700.58,384.41v113.01h-80.32c6.44-6.1,12.25-12.82,17.3-20.27,11.63-17.16,18.35-36.24,21.45-56.62,.7-4.6,1.27-9.29,.72-13.98-.45-3.76-.26-7.53-.33-11.3-.03-1.14,.58-1.64,1.63-1.63,4.99,.06,9.95-.42,14.91-.9,6.17-.59,12.23-1.7,18-4.09,2.63-1.09,4.83-2.49,6.65-4.22Z"/>
    <ellipse class="cls-11" cx="727.84" cy="621.17" rx="66.13" ry="70.86"/>
    <ellipse class="cls-11" cx="77.75" cy="351.83" rx="137.64" ry="63.78" transform="translate(-282.45 361.09) rotate(-79.01)"/>
    <g>
      <ellipse class="cls-11" cx="718.35" cy="351.83" rx="62.09" ry="137.51" transform="translate(-52.25 137.39) rotate(-10.54)"/>
      <ellipse class="cls-11" cx="661.78" cy="190.68" rx="57.72" ry="134.37" transform="translate(1.32 385.89) rotate(-32.54)"/>
      <ellipse class="cls-11" cx="497.08" cy="69" rx="60.29" ry="122.26" transform="translate(274.88 518.97) rotate(-71.62)"/>
      <ellipse class="cls-11" cx="714" cy="625.66" rx="68.92" ry="70.86"/>
      <ellipse class="cls-11" cx="740.1" cy="514.15" rx="53.65" ry="114.16" transform="translate(-23.64 35.82) rotate(-2.73)"/>
      <path class="cls-14" d="M415.17,82.22c1.07-22.41,.99-44.91-.3-67.32,.52,.09,1.03,.18,1.55,.28,2.72,.51,5.42,1.4,8.26,.99,2.18-.32,4.35-.64,6.53-.94,9.74-1.34,19.49-2.48,29.34-2.4,5.28,.04,10.57,0,15.85,.02,2.05,0,4.13-.09,6.16,.13,9.03,.99,18.08,1.71,27.06,3.32,9.83,1.77,19.54,4.02,29.1,6.92,19.64,5.95,38.27,14.33,55.82,25.14,15.78,9.72,30.58,20.79,43.49,34.38,2.67,2.81,5.35,5.6,8.1,8.31,13.5,13.34,24.91,28.45,35.4,44.33,6.89,10.43,13.21,21.18,19.05,32.2-.42,2.33-.84,4.66-1.26,6.99-2.11,11.71-4.28,23.42-6.87,35.04-2.19,9.85-4.43,19.98-7.76,29.56-1.79,3.71-3.79,7.29-6.04,10.74-3.97,4.73-8.22,9.2-12.33,13.81-2.89,3.24-5.69,6.48-8.41,9.8-10.72,3.27-21.65,5.68-32.75,7.07-11.8,1.48-23.66,2.48-35.57,1.49-5.37-.45-8.27-.98-14.91-1.26-.52-.02-3.95-.16-8.18-.86-1.44-.24-2.97-.54-4.74-1.04-2.16-.62-3.69-1.33-4.1-1.43-20.5-5-39.29-13.85-56.52-26.28-35.94-25.93-61.84-60.09-78.74-101.6-4.01-9.84-7.38-19.9-10.03-30.19,1.3-12.38,2.21-24.79,2.8-37.17Z"/>
    </g>
    <path class="cls-6" d="M705.82,349.75c-.76-4.44-2.56-8.01-5.24-10.78-2.5-2.6-5.78-4.5-9.68-5.79-3.72-1.22-7.59-1.89-11.54-2.06-7.29-.31-14.46,.41-21.53,2.15-1.16,.28-2.28,.83-3.58,.33-.12-.38-.34-.79-.39-1.23-1.27-10.48-2.53-20.97-3.8-31.44-.44-3.6-.9-7.18-1.42-10.76-.23-1.59-.6-1.79-2.08-1.49-4.13,.85-8.24,1.8-12.39,2.57-9.36,1.71-18.8,2.63-28.31,3.13-12.1,.64-24.11-.2-36.1-1.79-3.51-.46-6.94-1.78-10.56-1.37,0,.02,.02,.05,.03,.08-.03,0-.07,.02-.09,.02-.02-.03-.05-.06-.07-.08,.05,0,.09,0,.13,0-.31-.83-1.1-.76-1.79-.92-20.49-4.65-39.53-12.72-56.99-24.41-20.48-13.73-38.3-30.32-53.3-49.9-6.25-8.17-11.91-16.6-16.98-25.31-12.72-21.78-21.78-45.26-27.29-70.37-.29-1.33-.51-2.7-1.38-4.19-.42,1.7-.79,3-1.08,4.33-2.97,14.21-7.37,27.98-12.97,41.36-4.21,10.06-8.97,19.69-14.28,28.88H139.2v109.56c-1.15,9.57-2.3,19.14-3.46,28.72-.5,4.2-.25,4.42-4.54,3.29-7.34-1.94-14.86-2.45-22.44-2.01-4.39,.26-8.68,1.14-12.73,2.86-7.25,3.08-11.44,8.59-12.73,16.35-.99,5.98-1.25,12-.93,18.05,.61,11.67,5.55,18.05,16.61,21.51,4.62,1.44,9.37,2.29,14.18,2.73,4.81,.42,9.63,.62,14.45,.91,1.96,.11,2.13,.25,2.16,2.01,0,.76-.05,1.51-.04,2.27,.08,10.11,.58,20.19,2.38,30.18,1.57,8.63,3.91,16.92,7.1,24.86,3.65,9.14,8.41,17.79,14.33,25.97,5.16,7.14,10.96,13.59,17.29,19.49,6.51,6.07,13.6,11.53,21.16,16.48,17.64,11.55,36.74,20,56.76,26.44,15.94,5.12,32.18,8.98,48.66,11.91,12.78,2.28,25.63,3.98,38.56,5,11.11,.88,22.27,1.48,33.42,1.69,19.76,.37,39.52,.82,59.29,.3,13.57-.36,27.12-1.23,40.66-2.4,15.22-1.3,30.09-4.42,45.02-7.36,9.17-1.8,18.12-4.51,26.98-7.47,23.01-7.67,44.61-18.16,64.29-32.47,5.16-3.75,10.05-7.78,14.63-12.13,6.44-6.1,12.25-12.82,17.3-20.27,11.63-17.16,18.35-36.24,21.45-56.62,.7-4.6,1.27-9.29,.72-13.98-.45-3.76-.26-7.53-.33-11.3-.03-1.14,.58-1.64,1.63-1.63,4.99,.06,9.95-.42,14.91-.9,6.17-.59,12.23-1.7,18-4.09,2.63-1.09,4.83-2.49,6.65-4.22,3.12-2.96,5.04-6.87,5.86-11.71,1.3-7.71,.67-15.36-.62-22.96Zm-298.87,48.54c-6.05-1.12-12-.63-17.62,2.02-2.12,1-3.69,2.62-3.66,5.24,0,.8-.13,1.46-1.03,1.75-2.85,.91-5.7,1.85-8.56,2.77-.67,.21-1.18-.09-1.39-.73-.23-.71-.45-1.44-.5-2.19-.37-5.24,1.26-9.76,4.97-13.52,1.38-1.41,2.95-2.61,4.72-3.44,8.29-3.91,16.96-5.02,25.91-2.97,7.72,1.77,12.63,8.06,12.38,16.08-.08,2.38,.16,4.84-1.44,7.03-3.51-.83-6.81-2.17-10.22-3.51,.12-1.3,.35-2.49,.32-3.67-.07-2.61-1.33-4.38-3.87-4.85Zm61.61,74.92c-.69,.59-1.44,1.09-2.19,1.6-14.5,9.8-30.1,17.06-47.32,20.6-6.48,1.33-12.98,2.02-19.55,2.02-2.61,0-5.24-.11-7.87-.33-21.39-1.79-41.2-8.41-59.76-18.99-.52-.3-1.04-.61-1.53-.95-.25-.17-.42-.42-.81-.82,1.31-2.73,3.03-5.29,5.14-7.75,1.43,.78,2.76,1.48,4.07,2.21,13,7.22,26.84,12.16,41.41,15.07,20.82,4.16,40.76,1.2,59.97-7.48,7.3-3.29,14.27-7.16,20.86-11.7,.75-.51,1.48-1.01,2.63-1.8,1.92,2.47,3.58,4.61,5.22,6.75,.44,.59,.23,1.18-.26,1.59Z"/>
    <path class="cls-1" d="M409.48,702.31c10.38-.22,26.66,.28,42.96-.36,14.01-.55,28.04-.4,42.06-.96,13.56-.54,27.11-1.08,40.66-1.78,11.29-.58,22.57-1.24,33.85-2.04,5.71-.4,11.43-.71,17.13-1.25,10.8-1.03,21.59-2.12,32.37-3.35,10.63-1.21,21.26-2.44,31.84-3.99,15.05-2.2,30.05-4.77,44.94-7.92,21.69-4.59,43.06-10.3,63.81-18.17,8.31-3.15,16.45-6.73,24.41-10.69,1.7-.84,2.48-1.86,2.38-3.84-.22-4.21-.33-8.43-.48-12.65-.32-9.04-.41-18.08-.95-27.12-.34-5.71-.53-11.44-.84-17.16-.61-11.13-1.15-22.26-1.9-33.39-.76-11.28-1.36-22.56-2.08-33.84-.56-8.87-1.21-17.74-1.79-26.61-.4-6.16-.72-12.34-1.13-18.5-.54-8.11-1.14-16.22-1.7-24.33-.35-4.96-.59-9.93-1.04-14.88-.78-8.55-1.66-17.09-2.53-25.63-.64-6.29-1.16-12.6-2-18.87-1.9-14.19-3.74-28.38-6.08-42.5-2.41-14.57-5-29.1-7.81-43.59-3.65-18.8-8.32-37.35-13.7-55.74-5.63-19.27-13.34-37.77-20.39-56.51-3.23-8.59-7.5-16.78-11.77-24.93-11.52-21.99-24.82-42.75-41.22-61.47-9.96-11.37-20.44-22.17-32.12-31.78-14.38-11.84-29.85-22.01-46.52-30.31-6.46-3.22-13.13-5.94-19.94-8.41-14.9-5.41-29.98-9.98-45.52-13.18-18.99-3.91-38.19-5.28-57.49-5.93-4.22-.14-8.43,.23-12.65,.35-10.4,.31-20.76,.97-31.11,2.12-9.89,1.1-19.72,2.52-29.51,4.31-2.79,.51-5.57,1.4-8.49,.99-2.24-.32-4.47-.64-6.71-.94-10.01-1.34-20.04-2.48-30.17-2.4-5.43,.04-10.86,0-16.3,.02-2.11,0-4.24-.09-6.33,.13-9.29,.99-18.59,1.71-27.82,3.32-10.11,1.77-20.09,4.02-29.92,6.92-20.19,5.95-39.35,14.33-57.39,25.14-16.22,9.72-31.44,20.79-44.72,34.38-2.74,2.81-5.5,5.6-8.33,8.31-13.88,13.34-25.61,28.45-36.39,44.33-14.19,20.89-26.03,43.09-36.3,66.13-10.99,24.68-19.97,50.1-27.76,75.95-5,16.6-9.38,33.37-13.27,50.27-4.36,18.95-8.17,38.02-11.16,57.24-1.66,10.72-3.32,21.45-4.78,32.21-1.51,11.21-2.95,22.43-4.11,33.68-1.17,11.39-1.9,22.83-2.93,34.24-1.15,12.76-1.89,25.55-2.63,38.34-.44,7.53-.71,15.07-1.03,22.6-.31,7.38-.72,14.76-.8,22.15-.08,6.94-.24,13.88-.53,20.81-.63,15.39-.18,30.78-.36,46.17-.02,1.54,.51,2.5,1.79,3.31,5.48,3.48,11.17,6.58,17.07,9.28,13.19,6.04,26.91,10.56,40.86,14.42,14.68,4.05,29.53,7.32,44.53,9.94,10.09,1.76,20.22,3.25,30.35,4.8,5.51,.84,11.04,1.58,16.57,2.29,5.38,.68,10.77,1.34,16.17,1.87,8.1,.8,16.2,1.51,24.31,2.21,9.01,.79,18.01,1.61,27.02,2.27,6.46,.47,12.94,.71,19.42,1.03,2.86,.14,5.73,.23,8.59,.38,7.82,.43,15.64,1.04,23.47,1.29,14.32,.45,28.64,.7,42.96,1.02,.3,0,.6,0,.91,.01,12.36,.27,24.72,.65,37.09,.78,12.37,.14,24.75,.03,43.03,.03Z"/>
    <path class="cls-12" d="M785.39,635.32c-.32-9.04-.41-18.08-.95-27.12-.34-5.71-.53-11.44-.84-17.16-.61-11.13-1.15-22.26-1.9-33.39-.76-11.28-1.36-22.56-2.08-33.84-.56-8.87-1.21-17.74-1.79-26.61-.4-6.16-.72-12.34-1.13-18.5-.54-8.11-1.14-16.22-1.71-24.33-.35-4.96-.59-9.93-1.04-14.88-.78-8.55-1.66-17.09-2.53-25.63-.64-6.29-1.16-12.6-2-18.87-1.9-14.19-3.74-28.38-6.08-42.5-2.41-14.57-5-29.1-7.81-43.59-3.65-18.8-8.32-37.35-13.7-55.74-5.63-19.27-13.34-37.77-20.39-56.51-3.23-8.59-7.5-16.78-11.77-24.93-11.52-21.99-24.82-42.75-41.22-61.47-9.96-11.37-20.44-22.17-32.12-31.78-14.38-11.84-29.85-22.01-46.52-30.31-6.46-3.22-13.13-5.94-19.94-8.41-14.9-5.41-29.98-9.98-45.52-13.18-18.99-3.91-38.19-5.28-57.49-5.93-4.22-.14-8.43,.23-12.65,.35-10.41,.31-20.76,.97-31.11,2.12-9.89,1.1-19.72,2.52-29.51,4.31-2.79,.51-5.58,1.4-8.49,.99-2.24-.32-4.47-.64-6.71-.94-10.01-1.34-20.04-2.48-30.17-2.4-5.43,.04-10.87,0-16.3,.02-2.11,0-4.24-.09-6.33,.13-9.29,.99-18.59,1.71-27.82,3.32-10.11,1.77-20.09,4.02-29.92,6.92-20.19,5.95-39.35,14.33-57.39,25.14-16.22,9.72-31.44,20.79-44.72,34.38-2.74,2.81-5.5,5.6-8.33,8.31-13.88,13.34-25.61,28.45-36.39,44.33-14.19,20.89-26.03,43.09-36.3,66.13-10.99,24.68-19.97,50.1-27.76,75.95-5,16.6-9.38,33.37-13.27,50.27-4.36,18.95-8.17,38.02-11.16,57.24-1.66,10.72-3.32,21.45-4.78,32.21-1.52,11.21-2.95,22.43-4.11,33.68-1.17,11.39-1.9,22.83-2.93,34.24-1.15,12.76-1.89,25.55-2.63,38.34-.44,7.53-.71,15.07-1.03,22.6-.31,7.38-.72,14.76-.8,22.15-.08,6.94-.24,13.88-.53,20.81-.63,15.39-.18,30.78-.36,46.17-.02,1.54,.51,2.5,1.79,3.31,5.48,3.48,11.17,6.58,17.07,9.28,13.19,6.04,26.91,10.56,40.86,14.42,14.68,4.05,29.53,7.32,44.53,9.94,10.09,1.76,20.22,3.25,30.35,4.8,5.51,.84,11.04,1.58,16.57,2.29,5.38,.68,10.77,1.34,16.17,1.87,8.1,.8,16.2,1.51,24.31,2.21,9,.79,18.01,1.61,27.02,2.27,6.46,.47,12.94,.71,19.42,1.03,2.86,.14,5.73,.23,8.59,.38,7.82,.43,15.64,1.04,23.47,1.29,14.32,.45,28.64,.7,42.96,1.02,.3,0,.6,0,.91,.01,12.36,.27,24.72,.65,37.09,.78,12.37,.14,24.75,.03,43.03,.03,10.38-.22,26.66,.28,42.96-.36,14.01-.55,28.04-.4,42.06-.96,13.56-.54,27.11-1.08,40.66-1.78,11.29-.58,22.57-1.24,33.85-2.04,5.71-.4,11.43-.71,17.13-1.25,10.8-1.03,21.59-2.12,32.37-3.35,10.63-1.21,21.26-2.44,31.84-3.99,15.05-2.2,30.05-4.77,44.94-7.92,21.69-4.59,43.06-10.3,63.81-18.17,8.31-3.15,16.45-6.73,24.41-10.69,1.7-.84,2.48-1.86,2.38-3.84-.22-4.21-.33-8.43-.48-12.65Zm-78.95-262.61c-1.29,7.64-5.36,12.95-12.51,15.92-5.77,2.39-11.82,3.5-18,4.09-4.96,.47-9.91,.96-14.9,.9-1.07-.01-1.66,.49-1.64,1.64,.07,3.77-.12,7.54,.33,11.3,.56,4.69-.02,9.38-.71,13.98-3.1,20.38-9.82,39.46-21.45,56.62-8.65,12.75-19.5,23.37-31.93,32.41-19.67,14.3-41.28,24.79-64.29,32.47-8.86,2.96-17.81,5.66-26.97,7.47-14.92,2.95-29.81,6.05-45.02,7.36-13.54,1.16-27.08,2.03-40.65,2.39-19.77,.52-39.53,.07-59.29-.3-11.15-.21-22.31-.81-33.42-1.69-12.92-1.02-25.78-2.72-38.56-5-16.48-2.94-32.72-6.79-48.66-11.92-20.02-6.44-39.12-14.88-56.76-26.44-14.9-9.76-27.98-21.49-38.47-35.97-11.06-15.28-18.07-32.27-21.43-50.82-1.81-10-2.3-20.07-2.38-30.19,0-.75,.05-1.51,.04-2.26-.03-1.77-.2-1.89-2.16-2.01-4.82-.28-9.65-.48-14.45-.91-4.81-.43-9.56-1.28-14.18-2.73-11.06-3.46-16-9.84-16.61-21.51-.32-6.04-.06-12.07,.94-18.05,1.29-7.75,5.48-13.27,12.73-16.35,4.05-1.72,8.34-2.6,12.73-2.86,7.58-.45,15.09,.08,22.44,2.01,4.3,1.13,4.04,.91,4.54-3.28,1.61-13.33,3.21-26.65,4.82-39.98,.04-.3,.05-.6,.12-.9,.61-2.85-.08-3.77,3.86-2.59,11.27,3.39,22.77,5.87,34.45,7.3,12.13,1.48,24.32,2.48,36.57,1.49,5.52-.45,8.5-.98,15.33-1.26,.54-.02,4.06-.16,8.41-.86,1.48-.24,3.05-.54,4.87-1.04,2.22-.62,3.8-1.33,4.22-1.43,21.08-5,40.39-13.85,58.1-26.28,36.95-25.93,63.58-60.09,80.95-101.6,5.6-13.38,10-27.15,12.97-41.36,.28-1.33,.65-2.63,1.07-4.33,.87,1.49,1.09,2.86,1.38,4.19,7.71,35.15,22.38,67.1,44.27,95.68,15,19.57,32.81,36.18,53.3,49.9,17.46,11.7,36.5,19.76,56.99,24.42,.69,.16,1.48,.09,1.8,.91,3.63-.4,7.05,.9,10.57,1.37,11.99,1.6,23.99,2.44,36.1,1.8,9.5-.5,18.95-1.43,28.3-3.14,4.15-.76,8.26-1.71,12.39-2.56,1.48-.3,1.85-.09,2.08,1.49,.52,3.58,.98,7.17,1.42,10.77,1.28,10.48,2.53,20.96,3.8,31.45,.05,.43,.27,.84,.39,1.23,1.3,.5,2.42-.04,3.58-.33,7.07-1.74,14.25-2.47,21.53-2.16,3.95,.17,7.82,.84,11.54,2.06,8.08,2.65,13.45,8,14.91,16.56,1.3,7.6,1.93,15.24,.62,22.96Z"/>
    <path class="cls-6" d="M559.22,291.22s-.08,0-.13,0c.02,.03,.05,.06,.07,.08,.03,0,.07,0,.09-.02,0-.03-.02-.06-.03-.08Z"/>
    <g>
      <circle class="cls-10" cx="685.54" cy="403.99" r="28.49"/>
      <path class="cls-8" d="M688.9,405.88c-1.48,.16-3.45,.47-4.76-.43-1.5-1.02-1.09-3.12-.03-4.29,2.12-2.34,5.88-2.39,8.5-.95s4.14,4.48,3.59,7.56c-.64,3.58-3.39,5.69-6.84,6.37s-7.84,.63-10.71-1.39-3.23-6-2.84-9.23c.87-7.1,5.13-14.87,12.5-16.76,6.69-1.71,13.79,2.53,16.47,8.67,2.98,6.85,.99,14.97-3.82,20.44s-12.75,9.44-20.28,8.94c-7.05-.46-12.65-5.88-14.76-12.41s-.93-13.15,2.06-18.85c2.17-4.12,5.05-7.02,9.47-9.15,1.1-.53,2.25-.95,3.42-1.3,1.74-.52,1-3.25-.75-2.73-5.59,1.67-10.54,5.05-13.61,10.04-3.94,6.41-5.62,14.55-3.58,21.88,2.23,8.03,8.83,14.55,17.3,15.32,8.9,.81,18.43-4.11,23.82-11.06s6.84-17,2.07-24.65c-4.38-7.01-13.61-10.38-21.25-6.89-3.97,1.81-7.1,5.22-9.05,9.07s-3.24,8.43-2.92,12.77,2.44,7.93,6.57,9.47,9.24,1.39,13.12-.18,6.21-4.91,6.53-8.98c.3-3.85-1.68-7.53-5.07-9.38s-7.72-1.87-10.85,.45-4.23,7.87-.04,9.92c1.79,.88,3.82,.79,5.75,.58,1.79-.2,1.81-3.03,0-2.83h0Z"/>
    </g>
    <ellipse class="cls-11" cx="135.92" cy="190.68" rx="135.49" ry="58.85" transform="translate(-98.12 198.37) rotate(-56.4)"/>
    <path class="cls-3" d="M235.37,383.15c-14.5-3.89-37.75-19.48-44.84-29.87,12.44-10.43,40.58-23.88,52.07-24.89,.56,.84-.13,1.32-.57,1.83-4.07,4.71-6.22,10.32-7.3,16.31-1.23,6.83-1.96,13.72-2,20.68-.03,4.87,.57,9.62,2.35,14.18,.15,.38,.14,.83,.29,1.75Z"/>
    <path class="cls-4" d="M292.54,383.45c11.21-15.26,12.07-31.24,4.8-48.14,.59-.77,1.23,.02,1.78,.29,8.96,4.48,16.97,10.29,24.11,17.3,1.58,1.55,1.64,1.78,.68,3.46-7.03,12.27-16.9,21.43-29.92,27.09-.25,.11-.58,.01-1.45,.01Z"/>
    <path class="cls-9" d="M463.62,464.87c1.92,2.48,3.58,4.61,5.22,6.75,.45,.59,.22,1.18-.26,1.59-.69,.58-1.45,1.09-2.19,1.59-14.5,9.8-30.1,17.05-47.32,20.59-9.06,1.86-18.16,2.47-27.42,1.69-21.39-1.8-41.2-8.41-59.77-19-.52-.3-1.04-.61-1.53-.95-.24-.17-.42-.42-.81-.82,1.32-2.72,3.03-5.28,5.14-7.75,1.44,.78,2.76,1.49,4.06,2.21,13,7.22,26.84,12.16,41.41,15.07,20.83,4.16,40.76,1.2,59.98-7.48,7.29-3.29,14.27-7.16,20.86-11.69,.74-.51,1.48-1.01,2.63-1.8Z"/>
    <path class="cls-7" d="M420.73,410.32c-3.51-.82-6.81-2.17-10.22-3.51,.12-1.31,.35-2.49,.32-3.67-.07-2.6-1.33-4.38-3.87-4.85-6.05-1.13-12-.63-17.62,2.02-2.12,1-3.69,2.63-3.66,5.24,.01,.8-.14,1.46-1.03,1.75-2.86,.91-5.71,1.85-8.57,2.76-.67,.21-1.18-.09-1.38-.72-.23-.71-.45-1.45-.5-2.18-.37-5.24,1.26-9.77,4.96-13.52,1.38-1.4,2.96-2.6,4.73-3.43,8.29-3.91,16.96-5.02,25.91-2.98,7.72,1.76,12.64,8.06,12.38,16.08-.08,2.37,.16,4.84-1.44,7.02Z"/>
    <path class="cls-3" d="M554.73,328.72s.09-.1,.13-.15c-.03,.07-.06,.14-.09,.21,0,0-.04-.06-.04-.06Z"/>
    <path class="cls-5" d="M500.48,335.39c.22-.16,.44-.33,.68-.45,.04-.02,.3,.19,.29,.29-.02,.36-.26,.52-.62,.48-.11-.11-.23-.22-.35-.32Z"/>
    <ellipse class="cls-11" cx="305.24" cy="69" rx="125.37" ry="60.45" transform="translate(-6.57 95.63) rotate(-17.62)"/>
    <ellipse class="cls-11" cx="238.78" cy="651.73" rx="183.4" ry="70.86"/>
    <circle class="cls-11" cx="82.23" cy="625.66" r="70.86"/>
    <ellipse class="cls-11" cx="55.39" cy="514.15" rx="114.17" ry="55.16" transform="translate(-460.88 543.89) rotate(-87.15)"/>
    <ellipse class="cls-11" cx="604.34" cy="645.86" rx="160.54" ry="70.86" transform="translate(-86.93 94.04) rotate(-8.3)"/>
    <g>
      <circle class="cls-10" cx="110.71" cy="403.99" r="28.49"/>
      <path class="cls-8" d="M114.08,405.88c-1.48,.16-3.45,.47-4.76-.43-1.5-1.02-1.09-3.12-.03-4.29,2.12-2.34,5.88-2.39,8.5-.95s4.14,4.48,3.59,7.56c-.64,3.58-3.39,5.69-6.84,6.37s-7.84,.63-10.71-1.39-3.23-6-2.84-9.23c.87-7.1,5.13-14.87,12.5-16.76,6.69-1.71,13.79,2.53,16.47,8.67,2.98,6.85,.99,14.97-3.82,20.44s-12.75,9.44-20.28,8.94c-7.05-.46-12.65-5.88-14.76-12.41s-.93-13.15,2.06-18.85c2.17-4.12,5.05-7.02,9.47-9.15,1.1-.53,2.25-.95,3.42-1.3,1.74-.52,1-3.25-.75-2.73-5.59,1.67-10.54,5.05-13.61,10.04-3.94,6.41-5.62,14.55-3.58,21.88,2.23,8.03,8.83,14.55,17.3,15.32,8.9,.81,18.43-4.11,23.82-11.06s6.84-17,2.07-24.65c-4.38-7.01-13.61-10.38-21.25-6.89-3.97,1.81-7.1,5.22-9.05,9.07s-3.24,8.43-2.92,12.77,2.44,7.93,6.57,9.47,9.24,1.39,13.12-.18,6.21-4.91,6.53-8.98c.3-3.85-1.68-7.53-5.07-9.38s-7.72-1.87-10.85,.45-4.23,7.87-.04,9.92c1.79,.88,3.82,.79,5.75,.58,1.79-.2,1.81-3.03,0-2.83h0Z"/>
    </g>
    <line class="cls-12" x1="230.88" y1="293.02" x2="244.17" y2="291.12"/>
    <path class="cls-13" d="M389.45,82.22c-1.1-22.41-1.02-44.91,.31-67.32-.53,.09-1.06,.18-1.59,.28-2.79,.51-5.58,1.4-8.49,.99-2.24-.32-4.47-.64-6.71-.94-10.01-1.34-20.04-2.48-30.17-2.4-5.43,.04-10.87,0-16.3,.02-2.11,0-4.24-.09-6.33,.13-9.29,.99-18.59,1.71-27.82,3.32-10.11,1.77-20.09,4.02-29.92,6.92-20.19,5.95-39.35,14.33-57.39,25.14-16.22,9.72-31.44,20.79-44.72,34.38-2.74,2.81-5.5,5.6-8.33,8.31-13.88,13.34-25.61,28.45-36.39,44.33-7.08,10.43-13.58,21.18-19.59,32.2,.43,2.33,.86,4.66,1.3,6.99,2.17,11.71,4.4,23.42,7.06,35.04,2.25,9.85,4.56,19.98,7.98,29.56,1.84,3.71,3.9,7.29,6.21,10.74,4.08,4.73,8.45,9.2,12.68,13.81,2.98,3.24,5.85,6.48,8.65,9.8,11.02,3.27,22.26,5.68,33.67,7.07,12.13,1.48,24.32,2.48,36.57,1.49,5.52-.45,8.5-.98,15.33-1.26,.54-.02,4.06-.16,8.41-.86,1.48-.24,3.05-.54,4.87-1.04,2.22-.62,3.8-1.33,4.22-1.43,21.08-5,40.39-13.85,58.1-26.28,36.95-25.93,63.58-60.09,80.95-101.6,4.12-9.84,7.58-19.9,10.31-30.19-1.33-12.38-2.27-24.79-2.88-37.17Z"/>
    <path class="cls-2" d="M610.95,353.45c-3.44-5.07-24.64-35.24-63.89-40.53-33.92-4.57-68.28,11.19-89.04,40.55,4.29,4.59,34.21,35.56,81.16,33.45,41.33-1.86,66.72-28.04,71.77-33.47Z"/>
    <rect class="cls-11" x="581.58" y="290.15" width="12.46" height="35.78" transform="translate(868.33 909.48) rotate(-142.66)"/>
    <rect class="cls-11" x="530.44" y="280.17" width="11.83" height="35.78" transform="translate(1088.53 565.68) rotate(176.8)"/>
    <rect class="cls-11" x="480.57" y="288.03" width="12.85" height="35.78" transform="translate(-79.3 205.57) rotate(-22.09)"/>
    <ellipse class="cls-11" cx="417.83" cy="653.91" rx="160.54" ry="70.86" transform="translate(-57.76 40.73) rotate(-5.22)"/>
    <path class="cls-2" d="M180.96,356.11c3.44-5.07,24.64-35.24,63.89-40.53,33.92-4.57,68.28,11.19,89.04,40.55-4.29,4.59-34.21,35.56-81.16,33.45-41.33-1.86-66.72-28.04-71.77-33.47Z"/>
    <g>
      <circle class="cls-11" cx="536.49" cy="350.93" r="39.08"/>
      <circle class="cls-11" cx="259.42" cy="353.59" r="39.08"/>
    </g>
    <rect class="cls-11" x="197.87" y="292.81" width="12.46" height="35.78" transform="translate(-146.62 187.46) rotate(-37.34)"/>
    <rect class="cls-11" x="249.64" y="282.82" width="11.83" height="35.78" transform="translate(17.2 -13.81) rotate(3.2)"/>
    <rect class="cls-11" x="298.49" y="290.69" width="12.85" height="35.78" transform="translate(471.42 709.17) rotate(-157.91)"/>
  </g>
</svg>