<?xml version="1.0" encoding="UTF-8"?>
<svg id="Livello_2" data-name="Livello 2" xmlns="http://www.w3.org/2000/svg" viewBox="0 0 223 213.58">
  <defs>
    <style>
      .cls-1 {
        fill: #828282;
      }
    </style>
  </defs>
  <g id="Livello_1-2" data-name="Livello 1">
    <path class="cls-1" d="M0,82.77c1.25-4.35,3.22-8.19,7.14-10.8,3.08-2.06,6.58-2.55,10.1-3.06,17.44-2.52,34.87-5.05,52.31-7.53,1.39-.2,2.11-.85,2.71-2.07,8.11-16.52,16.27-33.02,24.41-49.53C99.94,3.13,105.17-.42,112.66,.04c6.36,.39,10.76,3.87,13.55,9.5,4.4,8.9,8.78,17.81,13.17,26.71,3.75,7.6,7.55,15.18,11.22,22.82,.72,1.49,1.62,2.13,3.22,2.36,18.3,2.6,36.6,5.23,54.89,7.93,6.57,.97,11.28,4.54,13.39,10.93,2.17,6.59,.33,12.28-4.56,17.05-13.04,12.72-26.06,25.46-39.18,38.1-1.49,1.44-1.87,2.72-1.53,4.71,3.14,17.92,6.17,35.86,9.27,53.79,1.15,6.67-.62,12.33-6.09,16.37-5.53,4.09-11.53,4.24-17.62,1.04-16.29-8.57-32.6-17.11-48.87-25.73-1.53-.81-2.68-.74-4.16,.05-16.27,8.61-32.56,17.2-48.88,25.71-8.9,4.64-18.83,1.28-22.69-7.5-1.73-3.92-1.34-7.9-.63-11.96,3.05-17.57,6.01-35.15,9.09-52.71,.25-1.43-.14-2.25-1.1-3.18-12.45-12.08-24.81-24.24-37.31-36.27-3.62-3.48-6.82-7.1-7.85-12.19v-4.79Zm50.96,13.64c-.23,.29-.46,.57-.69,.86,.71,.37,1.55,.6,2.1,1.13,7.41,7.16,14.77,14.38,22.16,21.56,4.09,3.97,5.89,8.79,5.01,14.4-1.23,7.88-2.69,15.72-4.04,23.58-.56,3.29-1.09,6.58-1.69,10.23,1.1-.56,1.74-.89,2.38-1.22,8.79-4.62,17.63-9.15,26.36-13.89,6-3.26,11.8-3.3,17.8-.04,8.09,4.39,16.28,8.6,24.43,12.89,1.33,.7,2.68,1.38,4.22,2.18-.04-.81-.02-1.38-.11-1.92-1.64-9.58-3.06-19.19-5.01-28.71-1.56-7.62,.24-13.71,6.02-19.02,7.11-6.52,13.87-13.43,20.78-20.17,.53-.52,1.01-1.08,1.71-1.83-10.75-1.56-21.07-3.2-31.42-4.51-7.08-.9-12.09-4.18-15.16-10.73-4.22-8.99-8.74-17.83-13.14-26.73-.33-.66-.71-1.29-1.21-2.21-.56,1.1-.93,1.81-1.28,2.52-4.52,9.16-9.04,18.33-13.57,27.49-2.6,5.25-6.74,8.42-12.58,9.28-3.8,.56-7.6,1.12-11.41,1.68-7.22,1.06-14.44,2.12-21.66,3.17Z"/>
  </g>
</svg>